<svg width="1097" height="172" viewBox="0 0 1097 172" fill="none" xmlns="http://www.w3.org/2000/svg">
    <path d="M124.531 89.0156H97.0306C97.0306 83.5155 88.5 69.0156 63.5306 69.0156C37.9522 69.0156 28.0306 84.0156 28.5306 101.516C29.0306 119.015 35.5306 135.016 63.5306 137.016C85.9305 138.616 97.5306 127.016 100.531 121.016H69.0306V101.516H124.531V157.016H106.031L104.531 142.516C109.531 136.516 116.531 128.016 104.531 142.016C92.5306 156.016 72.1973 159.182 63.5306 159.016C2.53059 158.516 1.53059 109.516 1.03059 101.516C0.530586 93.5156 5.53059 46.0156 63.5306 47.0156C109.931 47.8156 123.531 75.3489 124.531 89.0156Z" fill="black" stroke="black"/>
    <path d="M172.5 114.5L121 49H151L185.5 92L219.5 49H249L198.5 114.5V157.5H185.5L172.5 144.5V114.5Z" fill="black"/>
    <path d="M287.5 157V74L325 157H353L390.5 74V143.5L404.5 157H416.5V49H374.5L339 131.5L303 49H261V143.5L275.5 157H287.5Z" fill="black"/>
    <path d="M508.5 50V169.5L539.5 122.5V2L508.5 50Z" fill="black"/>
    <path d="M561.5 50V169.5L593 122.5V2L561.5 50Z" fill="black"/>
    <path d="M614.5 50V169.5L645.5 122.5V2L614.5 50Z" fill="black"/>
    <path d="M765 157.5V122H799C835 120.8 841.333 95.5 840 83H812.559C813.504 95 805 100 799 100H765V71.5H799C809 72.7 812.186 79.3333 812.52 82.5H840C835.6 54.9 810.833 49 799 49.5H737.5V144L751.5 157.5H765Z" fill="black"/>
    <path d="M172.5 114.5L121 49H151L185.5 92L219.5 49H249L198.5 114.5V157.5H185.5L172.5 144.5V114.5Z" stroke="black"/>
    <path d="M287.5 157V74L325 157H353L390.5 74V143.5L404.5 157H416.5V49H374.5L339 131.5L303 49H261V143.5L275.5 157H287.5Z" stroke="black"/>
    <path d="M508.5 50V169.5L539.5 122.5V2L508.5 50Z" stroke="black"/>
    <path d="M561.5 50V169.5L593 122.5V2L561.5 50Z" stroke="black"/>
    <path d="M614.5 50V169.5L645.5 122.5V2L614.5 50Z" stroke="black"/>
    <path d="M765 157.5V122H799C835 120.8 841.333 95.5 840 83H812.559C813.504 95 805 100 799 100H765V71.5H799C809 72.7 812.186 79.3333 812.52 82.5H840C835.6 54.9 810.833 49 799 49.5H737.5V144L751.5 157.5H765Z" stroke="black"/>
    <path d="M853.5 143.5V49.5001H896V70.0002H880.5V97.0002H915C919.833 96.6669 929.5 93.4002 929.5 83.0002C929.5 72.6002 919.833 70.0002 915 70.0002H896.5V49.5001H919C936 49.0001 959 61.0001 957 86.0001C955.4 106 937 114.667 928 116.5L960 157H928.5L898 117.5H880.5V157H867L853.5 143.5Z" fill="black"/>
    <path d="M1031.5 159.5C1079.1 161.5 1095.5 127 1095.5 106.5C1097 55 1051 46.0002 1029 47.5002V71.5002C1054 70.0002 1069.07 81.3437 1068 106.5C1067 130 1046.5 134.5 1031.5 135C1016.5 135.5 996.5 129.5 996 101C995.6 78.2002 1017.5 71.8336 1028.5 71.5002V47.5002C974.1 50.3002 966.167 91.6669 969 112C970 127 983.9 157.5 1031.5 159.5Z" fill="black"/>
    <path d="M853.5 143.5V49.5001H896V70.0002H880.5V97.0002H915C919.833 96.6669 929.5 93.4002 929.5 83.0002C929.5 72.6002 919.833 70.0002 915 70.0002H896.5V49.5001H919C936 49.0001 959 61.0001 957 86.0001C955.4 106 937 114.667 928 116.5L960 157H928.5L898 117.5H880.5V157H867L853.5 143.5Z" stroke="black"/>
    <path d="M1031.5 159.5C1079.1 161.5 1095.5 127 1095.5 106.5C1097 55 1051 46.0002 1029 47.5002V71.5002C1054 70.0002 1069.07 81.3437 1068 106.5C1067 130 1046.5 134.5 1031.5 135C1016.5 135.5 996.5 129.5 996 101C995.6 78.2002 1017.5 71.8336 1028.5 71.5002V47.5002C974.1 50.3002 966.167 91.6669 969 112C970 127 983.9 157.5 1031.5 159.5Z" stroke="black"/>
</svg>
